<?xml version="1.0" encoding="UTF-8"?>
<svg version="1.1" xmlns="http://www.w3.org/2000/svg" width="500" height="500">
<path d="M0 0 C165 0 330 0 500 0 C500 165 500 330 500 500 C335 500 170 500 0 500 C0 335 0 170 0 0 Z " fill="#000000" transform="translate(0,0)"/>
<path d="M0 0 C4.13681992 2.71682569 7.26216985 5.89325478 10 10 C10.680625 9.154375 11.36125 8.30875 12.0625 7.4375 C15 5 15 5 18.1875 4.625 C31.16882793 7.63801971 45.79130497 29.18695745 53 40 C52.85904073 44.22877814 49.86758439 46.20235669 47 49 C45.70480005 51.16620544 45.70480005 51.16620544 45 53 C45.99 52.01 46.98 51.02 48 50 C48.66 50.33 49.32 50.66 50 51 C48.35 52.98 46.7 54.96 45 57 C47.49361571 55.79618552 49.68143083 54.54571278 52 53 C54.6875 52.875 54.6875 52.875 57 53 C58.24843938 63.98626654 50.9792801 75.249834 45 84 C41.88034913 87.55230318 38.812101 89.57540285 34 90 C35.13812449 86.6890924 36.60582009 84.13248781 38.625 81.3125 C41.66967344 76.48800262 41.78333645 72.5541208 41 67 C38.41857503 57.75970261 33.67836136 49.85616536 28.77734375 41.69335938 C25.29692938 35.74596917 22.78434028 30.0337164 20.84179688 23.41381836 C20.14604446 20.85616013 20.14604446 20.85616013 18 19 C15.93125966 18.3574765 15.93125966 18.3574765 14 18 C17.8677975 25.24363831 21.91594797 32.37677027 26 39.5 C32.91696865 51.58129825 32.91696865 51.58129825 35.75 56.6875 C36.19859375 57.49574219 36.6471875 58.30398437 37.109375 59.13671875 C38 61 38 61 38 63 C35.36 63.66 32.72 64.32 30 65 C30 65.33 30 65.66 30 66 C31.32 66.33 32.64 66.66 34 67 C33.071875 67.4125 32.14375 67.825 31.1875 68.25 C28.11945319 69.93441786 26.80959535 71.08454083 25 74 C25.598125 73.525625 26.19625 73.05125 26.8125 72.5625 C29.95661505 70.31670354 32.42559413 69.87582941 36.1875 69.9375 C37.445625 69.958125 38.70375 69.97875 40 70 C40.19504309 79.94719734 32.87693065 88.2081167 26.3125 95.125 C20.14317081 100.89446526 14.19769192 102.15764792 6 102 C6.37511719 101.443125 6.75023437 100.88625 7.13671875 100.3125 C8.20979374 98.71234787 9.27435925 97.10646847 10.33203125 95.49609375 C11.35603778 93.96368116 12.40998527 92.45017479 13.51171875 90.97265625 C16.56920428 86.68867223 17.83829093 83.23936859 17.546875 77.9453125 C15.6548213 67.75525184 10.65435504 58.12779457 6.4050293 48.74658203 C4.19785732 43.75984771 2.75201955 38.81747144 1.703125 33.453125 C0.91394079 30.69974896 -0.05696826 29.09394683 -2 27 C-2.99 26.67 -3.98 26.34 -5 26 C-4.77893585 26.50032745 -4.5578717 27.00065491 -4.33010864 27.5161438 C-2.02330281 32.73850102 0.27971309 37.96251758 2.58056641 43.1875 C3.43897608 45.13551681 4.29834101 47.08311298 5.15869141 49.03027344 C6.39739221 51.83417652 7.63261442 54.63958995 8.8671875 57.4453125 C9.25059296 58.31116974 9.63399841 59.17702698 10.02902222 60.06912231 C15 71.39039949 15 71.39039949 15 77 C14.505 76.835 14.01 76.67 13.5 76.5 C9.96555911 75.79311182 6.60309299 75.93994845 3 76 C6.96 76.99 6.96 76.99 11 78 C11 78.33 11 78.66 11 79 C4.565 79.99 4.565 79.99 -2 81 C-0.081875 81.0825 1.83625 81.165 3.8125 81.25 C9.42856779 81.4915513 9.42856779 81.4915513 11.94921875 83.734375 C13.32123142 86.69261792 13.07520721 87.94414793 12 91 C7.8007774 97.59232795 2.58230228 104.48719649 -5 107 C-7.75390625 107.3359375 -7.75390625 107.3359375 -10.5625 107.375 C-11.49191406 107.40335937 -12.42132813 107.43171875 -13.37890625 107.4609375 C-16.7026991 106.87642549 -17.86770194 105.53868899 -20 103 C-19.36191406 102.03578125 -18.72382813 101.0715625 -18.06640625 100.078125 C-17.23147586 98.80227632 -16.39685671 97.52622392 -15.5625 96.25 C-15.14162109 95.61578125 -14.72074219 94.9815625 -14.28710938 94.328125 C-13.88427734 93.709375 -13.48144531 93.090625 -13.06640625 92.453125 C-12.69459229 91.88754883 -12.32277832 91.32197266 -11.93969727 90.73925781 C-9.25473862 85.76974744 -9.02193869 79.29793219 -10.61181641 73.93701172 C-11.45123277 71.90317686 -12.3624631 69.92197397 -13.3125 67.9375 C-16.53429277 60.76555803 -18.20585352 54.06260033 -19.296875 46.29296875 C-20.00283065 42.98674314 -20.63402977 41.37171288 -23 39 C-23.99 38.67 -24.98 38.34 -26 38 C-25.66677734 38.86278564 -25.33355469 39.72557129 -24.99023438 40.61450195 C-23.75625031 43.8166043 -22.52676505 47.02035862 -21.30029297 50.2253418 C-20.76855937 51.61209913 -20.23504198 52.99817385 -19.69970703 54.38354492 C-18.93051643 56.37502078 -18.16777516 58.36886369 -17.40625 60.36328125 C-16.71499023 62.16212769 -16.71499023 62.16212769 -16.00976562 63.99731445 C-15 67 -15 67 -15 70 C-17.64 70.66 -20.28 71.32 -23 72 C-21.35 72.66 -19.7 73.32 -18 74 C-18 74.33 -18 74.66 -18 75 C-20.97 75.99 -23.94 76.98 -27 78 C-25.64455078 77.94779297 -25.64455078 77.94779297 -24.26171875 77.89453125 C-23.08222656 77.86746094 -21.90273437 77.84039062 -20.6875 77.8125 C-19.51574219 77.77769531 -18.34398437 77.74289063 -17.13671875 77.70703125 C-14 78 -14 78 -12.01953125 79.07421875 C-10.29968573 82.32281585 -11.08605787 84.50909945 -12 88 C-13.42553307 90.78978285 -15.13501472 93.31663379 -16.9375 95.875 C-17.62102539 96.88820312 -17.62102539 96.88820312 -18.31835938 97.921875 C-21.69663149 102.84831575 -21.69663149 102.84831575 -24 104 C-28.61458744 104.46145874 -31.6412076 104.74619403 -35.375 101.8125 C-39.98463346 96.87360701 -40.32061342 92.94258287 -40.203125 86.3828125 C-39.96843216 83.62968498 -39.30064222 81.43870416 -38 79 C-39.32 78.34 -40.64 77.68 -42 77 C-42 75.02 -42 73.04 -42 71 C-42.60328125 71.04640625 -43.2065625 71.0928125 -43.828125 71.140625 C-50.4373928 71.43910806 -50.4373928 71.43910806 -53.5625 69 C-54.036875 68.34 -54.51125 67.68 -55 67 C-53.88243734 70.86848614 -52.97126708 73.28922757 -50 76 C-56.70518586 76.19818283 -62.65176798 76.30844801 -69 74 C-62.298551 77.96338519 -56.55957907 79.65695702 -48.78515625 80.25 C-46 81 -46 81 -44.125 83.3671875 C-42.599162 86.93807227 -42.78796942 89.41747868 -44 93 C-50.89782403 107.94891202 -50.89782403 107.94891202 -57 111 C-53.62294375 110.46274105 -50.303314 109.88935377 -47 109 C-48.39332574 112.36720387 -49.9789286 113.9859524 -53 116 C-47.13741138 114.32497468 -42.44524801 112.16787202 -39 107 C-35.75791433 107.35049575 -34.38472296 107.56221181 -32.1875 110.0625 C-31.5996875 111.0215625 -31.5996875 111.0215625 -31 112 C-30.67 110.35 -30.34 108.7 -30 107 C-25.125 109.75 -25.125 109.75 -24 112 C-24 110.02 -24 108.04 -24 106 C-20 106 -20 106 -17 108 C-2.45774047 109.56456926 11.3651648 106.432256 24 99 C24.51949219 98.46632813 25.03898438 97.93265625 25.57421875 97.3828125 C27 96 27 96 29 96 C29.33 95.01 29.66 94.02 30 93 C32.375 93.3125 32.375 93.3125 35 94 C37 97 37 97 37.0234375 98.96875 C33.95364021 105.06147744 20.23168002 109.02009616 13.91015625 111.17578125 C9.29532052 112.48280184 4.62435252 113.34985361 -0.1015625 114.140625 C-3.76807967 114.7575944 -7.39063025 115.50570512 -11.0234375 116.296875 C-24.84837987 119.1905385 -37.97691999 120.45723805 -52.0625 120.375 C-52.83864655 120.37067963 -53.61479309 120.36635925 -54.41445923 120.36190796 C-67.23875424 120.25374859 -67.23875424 120.25374859 -71 119 C-66.20517932 121.75702189 -62.41390868 122.53328373 -57 123 C-59.62554632 125.62554632 -60.90274264 125.3282598 -64.5625 125.375 C-70.50288254 125.30334279 -74.86540048 123.90441993 -80 121 C-78.56542672 121.9834496 -77.12722594 122.96160921 -75.6875 123.9375 C-74.88699219 124.48277344 -74.08648437 125.02804688 -73.26171875 125.58984375 C-68.2260539 128.72952425 -62.82645626 128.38826017 -57.0546875 128.71875 C-54 129 -54 129 -53 130 C-50.47145648 153.1181122 -59.7858175 177.8336671 -65.29745483 200.0866394 C-66.5782919 205.26559967 -67.83244001 210.45030747 -69.06640625 215.640625 C-69.22705566 216.3146637 -69.38770508 216.98870239 -69.55322266 217.6831665 C-70.30340225 220.83120024 -71.05053464 223.97989692 -71.79248047 227.12988281 C-72.05561035 228.23170898 -72.31874023 229.33353516 -72.58984375 230.46875 C-72.81534912 231.42201172 -73.04085449 232.37527344 -73.27319336 233.35742188 C-75.22625762 240.45851948 -75.22625762 240.45851948 -77.76489258 242.23510742 C-78.46767334 242.52232666 -79.1704541 242.8095459 -79.89453125 243.10546875 C-80.67908691 243.44384766 -81.46364258 243.78222656 -82.27197266 244.13085938 C-83.52953369 244.65389648 -83.52953369 244.65389648 -84.8125 245.1875 C-93.62830657 249.10858499 -100.77225639 253.64404595 -108 260 C-108.80566406 260.69480469 -109.61132812 261.38960938 -110.44140625 262.10546875 C-126.47875546 276.9713942 -135.99248871 299.08923678 -141 320 C-141 320.66 -141 321.32 -141 322 C-140.55011719 321.07960938 -140.10023438 320.15921875 -139.63671875 319.2109375 C-130.1810866 300.39242463 -116.52428665 284.72885327 -99 273 C-98.34 273.33 -97.68 273.66 -97 274 C-97.4125 274.391875 -97.825 274.78375 -98.25 275.1875 C-104.64337513 281.80920996 -108.14858029 289.75696145 -112 298 C-109.1702654 295.76219968 -106.41542917 293.49234831 -103.75 291.0625 C-95.97426333 284.38312533 -86.38425915 279.3509838 -76 280 C-67.9055758 294.1732408 -65.67191093 310.48652127 -68.65625 326.52734375 C-71.80050447 336.84104053 -77.5738346 345.9038379 -84.90234375 353.7265625 C-87.19717781 356.21370109 -89.31507591 358.80200296 -91.4375 361.4375 C-95.7914955 366.78819326 -100.26397095 371.98331737 -105 377 C-105.57234375 377.63421875 -106.1446875 378.2684375 -106.734375 378.921875 C-110.97230692 383.15980692 -114.40121806 383.49970638 -120.27734375 383.7421875 C-124.41802832 384.13427528 -127.66007213 385.54634292 -131 388 C-133.57317535 391.2372206 -134.25858437 393.99902738 -135 398 C-116.12804099 387.86184698 -116.12804099 387.86184698 -100 374 C-99.37996094 373.33871094 -98.75992188 372.67742187 -98.12109375 371.99609375 C-96.35481431 370.04014672 -94.67023357 368.03844415 -93 366 C-92.3503125 365.21496094 -91.700625 364.42992187 -91.03125 363.62109375 C-88.67528865 360.75723493 -86.33643757 357.87977518 -84 355 C-82.99752185 353.76682463 -81.99491085 352.53375725 -80.9921875 351.30078125 C-76.49691726 345.77151658 -72.00230448 340.24178517 -67.5234375 334.69921875 C-64.361873 330.7888508 -61.18553121 326.89085754 -58 323 C-57.35675781 322.20980469 -56.71351563 321.41960937 -56.05078125 320.60546875 C-43.60482676 305.80894659 -23.9769242 289.54092162 -4.15234375 287.62890625 C8.99560345 287.24325387 19.61680734 289.94615783 29.7890625 298.78515625 C41.071858 310.08788602 47.90219818 327.11362354 48.4375 343 C48.04877906 357.2582839 40.91414834 367.55706558 30.8125 377.1875 C24.98356446 382.25683488 18.72084829 386.23181041 12 390 C11.38447266 390.35416992 10.76894531 390.70833984 10.13476562 391.07324219 C-2.05324515 398.05454462 -14.82220481 403.19464276 -28 408 C-28.80614746 408.29535645 -29.61229492 408.59071289 -30.44287109 408.89501953 C-43.98060188 413.79287517 -57.88470557 417.21292341 -72 420 C-43.38493628 420.81319451 -14.41056503 419.01899236 12 407 C13.58004405 406.29923445 15.1608329 405.60014686 16.7421875 404.90234375 C21.16711441 402.94740431 25.58488403 400.97699082 30 399 C24.21266161 410.95585088 12.67662772 418.90749511 1.52734375 425.43359375 C0.27630859 426.20896484 0.27630859 426.20896484 -1 427 C-1 427.33 -1 427.66 -1 428 C20.96651245 422.60387846 41.66549245 415.61737696 60 402 C61.94479337 400.58536263 63.9038936 399.19023716 65.875 397.8125 C66.75929688 397.17957031 67.64359375 396.54664063 68.5546875 395.89453125 C77.9063206 390.75219332 86.74459341 389.35346614 97.3125 389.5625 C98.49875977 389.57643799 99.68501953 389.59037598 100.90722656 389.60473633 C115.12922368 389.903706 127.69566683 393.22553718 141 398 C135.97941046 420.1362357 135.97941046 420.1362357 128 426 C123.73942351 428.17797989 119.3366863 429.90448045 114.875 431.625 C113.71484375 432.0890625 112.5546875 432.553125 111.359375 433.03125 C100.23434122 437.43646472 89.39363012 441.26036747 77.5625 443.1875 C76.62857422 443.35185547 75.69464844 443.51621094 74.73242188 443.68554688 C62.32556603 445.78307829 49.98344245 446.09866677 37.43432617 446.23901367 C-2.46507692 446.69965547 -41.59859351 450.88783653 -81 457 C-80.4416748 456.93941406 -79.88334961 456.87882812 -79.30810547 456.81640625 C-64.96478632 455.32440266 -50.72175671 454.78097781 -36.3125 454.75 C-35.10530304 454.74250732 -35.10530304 454.74250732 -33.87371826 454.73486328 C-1.64404029 454.57063981 -1.64404029 454.57063981 11 463 C10.67 464.65 10.34 466.3 10 468 C8.52433205 468.4898355 7.04417897 468.9661592 5.5625 469.4375 C4.73878906 469.70433594 3.91507813 469.97117187 3.06640625 470.24609375 C-4.14073689 472.01804104 -11.45966582 472.14962848 -18.84765625 472.1328125 C-20.26514664 472.13485939 -20.26514664 472.13485939 -21.71127319 472.13694763 C-24.82838368 472.13898265 -27.94539901 472.13260622 -31.0625 472.125 C-32.14258331 472.12378143 -33.22266663 472.12256287 -34.33547974 472.12130737 C-52.37205235 472.09775857 -70.40388631 471.88085695 -88.4375 471.5625 C-89.57381866 471.5429425 -90.71013733 471.52338501 -91.88088989 471.50323486 C-99.58814606 471.36731033 -107.29411094 471.19872722 -115 471 C-116.1884552 470.97008972 -117.3769104 470.94017944 -118.60137939 470.90936279 C-122.22552941 470.8132946 -125.84902589 470.70372131 -129.47265625 470.58984375 C-130.56573593 470.56112686 -131.65881561 470.53240997 -132.78501892 470.50282288 C-152.30266418 469.83422173 -166.25379018 463.4487848 -180.5078125 450.23828125 C-182.88325633 448.10484972 -185.32489137 446.16885223 -187.875 444.25 C-191.71999205 441.32209969 -194.81180851 438.37638298 -197 434 C-197.99379863 426.64085828 -197.02230943 421.8089321 -192.703125 415.77734375 C-190.91957439 413.9160696 -189.3624484 412.99120118 -187 412 C-176.91173501 418.48183209 -170.06583163 428.26370522 -165 439 C-166.53444236 426.55222783 -171.63523454 415.36182956 -176.5625 403.9375 C-180.38537896 395.05702733 -183.87353543 386.4568238 -186 377 C-186.19722656 376.20078125 -186.39445312 375.4015625 -186.59765625 374.578125 C-189.48301168 361.83981509 -190.38502463 348.24355356 -190.90771484 335.234375 C-190.9731296 333.65057639 -191.05015045 332.06723776 -191.13525391 330.484375 C-191.80201807 317.21698054 -190.46796899 306.15471332 -185.95800781 293.66064453 C-184.95234634 290.86765301 -184.00169292 288.05947732 -183.0546875 285.24609375 C-175.43934534 262.99583146 -165.59719108 241.67763866 -155.86791992 220.29638672 C-151.88602677 211.54257093 -147.92912956 202.77762562 -144 194 C-143.71147156 193.35647583 -143.42294312 192.71295166 -143.12567139 192.04992676 C-134.95595787 173.77455463 -128.85807488 154.87274329 -122.83129883 135.80639648 C-113.52820043 106.49999312 -102.59575791 80.1968051 -82 57 C-81.5472168 56.48937012 -81.09443359 55.97874023 -80.62792969 55.45263672 C-77.47387082 51.91540631 -74.25322366 48.44598224 -71 45 C-70.52981445 44.49581543 -70.05962891 43.99163086 -69.57519531 43.47216797 C-63.01522269 36.4747158 -56.1746143 30.66395201 -48.26171875 25.24609375 C-45.47184601 23.3249239 -42.78624421 21.34326782 -40.125 19.25 C-39.43019531 18.70730469 -38.73539063 18.16460938 -38.01953125 17.60546875 C-36.62855752 16.49968499 -35.25160584 15.37610764 -33.88671875 14.23828125 C-33.20222656 13.68527344 -32.51773438 13.13226563 -31.8125 12.5625 C-31.22082031 12.06878906 -30.62914062 11.57507812 -30.01953125 11.06640625 C-27.16101245 9.55697563 -25.20236668 9.67936749 -22 10 C-18.7890625 11.09375 -18.7890625 11.09375 -15.625 12.5 C-14.56539062 12.9640625 -13.50578125 13.428125 -12.4140625 13.90625 C-11.61742187 14.2671875 -10.82078125 14.628125 -10 15 C-10.15984375 14.42378906 -10.3196875 13.84757812 -10.484375 13.25390625 C-11.41219004 9.19822989 -11.9078597 4.81571941 -10 1 C-6.62011076 -0.68994462 -3.59570078 -0.91329523 0 0 Z " fill="#FCFCFC" transform="translate(244,6)"/>
<path d="M0 0 C14.68239368 44.04718104 5.6190563 108.09094405 -3 153 C-3.29100586 154.60053223 -3.29100586 154.60053223 -3.58789062 156.23339844 C-9.92003631 190.73856691 -21.78109828 223.01654135 -40 253 C-48.35258228 245.04381145 -54.77461998 234.19481745 -55.09765625 222.44921875 C-55.08605469 221.20785156 -55.07445312 219.96648437 -55.0625 218.6875 C-55.05347656 217.43324219 -55.04445313 216.17898438 -55.03515625 214.88671875 C-55.02355469 213.93410156 -55.01195312 212.98148438 -55 212 C-53.9378125 212.55429687 -52.875625 213.10859375 -51.78125 213.6796875 C-50.35438929 214.41189234 -48.92729327 215.14363873 -47.5 215.875 C-46.80390625 216.23980469 -46.1078125 216.60460937 -45.390625 216.98046875 C-40.64979323 219.39478122 -36.20498481 220.88632082 -31 222 C-31.51949219 220.82566406 -32.03898437 219.65132812 -32.57421875 218.44140625 C-37.21142782 207.79675182 -41.04717614 197.22759769 -44 186 C-44.36609375 184.76507813 -44.7321875 183.53015625 -45.109375 182.2578125 C-46.42523597 176.91172057 -46.36819069 171.5405935 -46.375 166.0625 C-46.41173828 164.51272461 -46.41173828 164.51272461 -46.44921875 162.93164062 C-46.4726467 156.76618424 -45.73241579 152.22782686 -42.86181641 146.73999023 C-41.85205308 145.02491884 -41.85205308 145.02491884 -42 143 C-43.38997745 141.79696095 -44.84048901 140.66364664 -46.3125 139.5625 C-63.73276986 125.91744443 -75.96971512 108.30436172 -82 87 C-82.91067512 106.39400711 -78.50322457 123.61364015 -68 140 C-67.67 140.66 -67.34 141.32 -67 142 C-88.29331309 141.27077695 -107.36371445 134.79177259 -123 120 C-123.71542969 119.33742188 -124.43085938 118.67484375 -125.16796875 117.9921875 C-131.63506743 111.41250877 -135.4038391 103.38383275 -139 95 C-139.27537598 94.36707031 -139.55075195 93.73414063 -139.83447266 93.08203125 C-145.27977041 80.05428441 -146.90745963 63.29592113 -142.4375 49.75 C-141.3203125 47.33984375 -141.3203125 47.33984375 -140 45 C-139.50242187 44.07316406 -139.00484375 43.14632812 -138.4921875 42.19140625 C-130.78801873 28.98681931 -118.93600379 21.67478134 -104.625 17.0625 C-80.66077241 11.34496705 -56.24114488 21.44929258 -36.07958984 33.69726562 C-27.38791754 39.14206058 -19.41479495 45.18316248 -11.98828125 52.28515625 C-10.01603925 54.20583942 -10.01603925 54.20583942 -7 55 C-7.37725797 53.6197879 -7.77801131 52.24599527 -8.1875 50.875 C-8.40792969 50.10929687 -8.62835938 49.34359375 -8.85546875 48.5546875 C-11.98521422 41.56883926 -16.28559793 38.97255934 -23.0625 36.1875 C-33.72598866 31.46282128 -45.32052623 25.37632067 -50 14 C-50.375 10.1875 -50.375 10.1875 -49 7 C-44.02650613 3.46187674 -38.31565634 2.11302009 -32.375 1.25 C-31.17556763 1.06570435 -31.17556763 1.06570435 -29.9519043 0.87768555 C-20.01023675 -0.49262402 -10.01005707 -0.27738541 0 0 Z " fill="#FCFCFC" transform="translate(453,247)"/>
<path d="M0 0 C3.03841634 0.21702974 3.98179086 0.98013548 6.0625 3.25 C7.92128127 6.27229321 8.51921601 9.15883368 9.1875 12.625 C10.6692027 19.82657179 13.54750578 26.13158914 16.68823242 32.75634766 C25.08038776 50.52651052 25.08038776 50.52651052 23 59 C20.21937257 64.71363953 16.49030468 70.50969532 12 75 C19.86255067 74.68359957 25.51138521 73.69382743 31.125 67.75 C33 66 33 66 35.75 65.75 C36.4925 65.8325 37.235 65.915 38 66 C32.40919312 71.80583792 27.64170353 75.57027267 20.0625 78.1875 C19.04639648 78.5577832 19.04639648 78.5577832 18.00976562 78.93554688 C16.01514184 79.65269349 14.0118094 80.33276039 12 81 C10.85789062 81.3815625 9.71578125 81.763125 8.5390625 82.15625 C4.37932738 83.14797493 0.56997733 83.33118954 -3.6875 83.3125 C-4.80608398 83.33666992 -4.80608398 83.33666992 -5.94726562 83.36132812 C-10.32347135 83.36523197 -12.76507656 82.98305592 -16 80 C-16.66 80 -17.32 80 -18 80 C-18 82.31 -18 84.62 -18 87 C-19.98 85.35 -21.96 83.7 -24 82 C-24.33 83.65 -24.66 85.3 -25 87 C-26.46484375 85.73046875 -27.9296875 84.4609375 -29.39453125 83.19140625 C-31.10712971 81.79128769 -31.10712971 81.79128769 -34 81 C-34.25136719 81.60457031 -34.50273437 82.20914063 -34.76171875 82.83203125 C-36.84765384 86.48406272 -40.32620746 88.13149366 -44 90 C-47 90.8125 -47 90.8125 -49 91 C-47.824375 89.8553125 -47.824375 89.8553125 -46.625 88.6875 C-43.92742283 86.09108195 -43.92742283 86.09108195 -42 83 C-42.886875 83.495 -43.77375 83.99 -44.6875 84.5 C-47.87586238 85.94378674 -49.58187546 86.30159922 -53 86 C-52.62488281 85.5875 -52.24976563 85.175 -51.86328125 84.75 C-46.38117775 78.56364643 -41.63188881 71.89566642 -39 64 C-39.23299729 60.91278584 -39.62247178 58.75505644 -41 56 C-42.96721488 55.65284443 -44.95105589 55.3984293 -46.9375 55.1875 C-53.31029121 54.30922117 -58.62416713 52.58388858 -64 49 C-64.33 48.34 -64.66 47.68 -65 47 C-63.906875 47.33 -62.81375 47.66 -61.6875 48 C-56.47109568 49.32985532 -51.34751531 49.17693984 -46 49 C-46.639375 48.443125 -47.27875 47.88625 -47.9375 47.3125 C-50.19680987 44.77933439 -50.63149047 43.31658576 -51 40 C-50.360625 40.639375 -49.72125 41.27875 -49.0625 41.9375 C-45.08069118 44.61912635 -41.705208 44.79498004 -37 45 C-36.71125 46.134375 -36.4225 47.26875 -36.125 48.4375 C-35.75375 49.613125 -35.3825 50.78875 -35 52 C-34.34 52.33 -33.68 52.66 -33 53 C-33.165 53.61875 -33.33 54.2375 -33.5 54.875 C-34.59620975 61.72631092 -35.06120855 68.05323034 -31 74 C-28.55163168 76.72040925 -26.54435898 77.23365004 -23 77.4375 C-20.11914021 77.52190019 -19.22603516 77.18974711 -16.98046875 75.3046875 C-11.98524356 69.49170355 -6.83104957 62.94067036 -7 55 C-8.91406662 52.64358476 -8.91406662 52.64358476 -12.2578125 52.8046875 C-13.53398437 52.82789063 -14.81015625 52.85109375 -16.125 52.875 C-17.40632813 52.89304688 -18.68765625 52.91109375 -20.0078125 52.9296875 C-20.99523437 52.95289063 -21.98265625 52.97609375 -23 53 C-20.8092961 50.70886268 -18.90542812 49.3024333 -16 48 C-17.32 47.34 -18.64 46.68 -20 46 C-16.57602277 43.89293709 -13.96057533 43.91319287 -10 44 C-10.33322266 43.13721436 -10.66644531 42.27442871 -11.00976562 41.38549805 C-12.24374969 38.1833957 -13.47323495 34.97964138 -14.69970703 31.7746582 C-15.23144063 30.38790087 -15.76495802 29.00182615 -16.30029297 27.61645508 C-17.06948357 25.62497922 -17.83222484 23.63113631 -18.59375 21.63671875 C-19.05458984 20.43748779 -19.51542969 19.23825684 -19.99023438 18.00268555 C-21 15 -21 15 -21 12 C-18.46678541 12.34940891 -17.24811375 12.74566786 -15.44140625 14.59765625 C-13.54214728 17.76308787 -13.26281356 20.53553485 -12.75 24.1875 C-11.63222171 31.30520243 -9.4446866 37.48370581 -6.33691406 43.9753418 C-3.49558761 50.17951362 -3.00050796 55.82514294 -5.0625 62.375 C-7.56069189 67.50478237 -10.86249611 72.24646671 -14 77 C-12.23955097 79.2255844 -11.36074771 79.94223506 -8.51171875 80.3984375 C-1.63732854 80.34138862 2.98915162 80.05716913 8.03125 74.9375 C10.08842149 72.67162995 12.06977489 70.37471192 14 68 C14.57878906 67.31164062 15.15757812 66.62328125 15.75390625 65.9140625 C17.3204985 63.93290861 17.3204985 63.93290861 16.75 60.8125 C16.28230737 58.11529528 16.28230737 58.11529528 15 57 C12.81707226 56.76518307 10.62796826 56.58636677 8.4375 56.4375 C7.23996094 56.35371094 6.04242188 56.26992187 4.80859375 56.18359375 C3.41833984 56.09271484 3.41833984 56.09271484 2 56 C2.495 55.01 2.495 55.01 3 54 C5.50390625 53.3671875 5.50390625 53.3671875 8.5625 52.875 C10.08037109 52.62363281 10.08037109 52.62363281 11.62890625 52.3671875 C12.80259766 52.18542969 12.80259766 52.18542969 14 52 C11.36 51.67 8.72 51.34 6 51 C8.58844848 48.41155152 10.39883667 48.76122558 13.9296875 48.734375 C16.29720333 49.03813175 17.90102517 49.89654521 20 51 C16.85199169 40.38532589 12.33117216 30.49174504 7.75 20.4375 C6.2800529 17.2098836 4.81754185 13.97904619 3.359375 10.74609375 C2.85322662 9.64460243 2.85322662 9.64460243 2.33685303 8.52085876 C0 3.33826748 0 3.33826748 0 0 Z " fill="#0D0D0D" transform="translate(239,32)"/>
<path d="M0 0 C0 2.95396787 -0.35034556 4.18422255 -1.49023438 6.82080078 C-1.81959488 7.59076889 -2.14895538 8.360737 -2.48829651 9.15403748 C-2.85309616 9.99265823 -3.21789581 10.83127899 -3.59375 11.6953125 C-4.37705071 13.52360498 -5.16016395 15.35197778 -5.94311523 17.18041992 C-6.35971405 18.14821381 -6.77631287 19.11600769 -7.20553589 20.11312866 C-30.5524222 74.15103949 -30.5524222 74.15103949 -49 130 C-49.33 130 -49.66 130 -50 130 C-49.53895566 120.02555238 -47.63772667 110.57641708 -45.4375 100.875 C-45.26081787 100.08786621 -45.08413574 99.30073242 -44.90209961 98.48974609 C-37.16346078 64.17056521 -26.93929345 24.60051235 0 0 Z " fill="#080808" transform="translate(158,147)"/>
<path d="M0 0 C1.29216026 3.87648078 0.20471818 6.32607029 -1 10.0625 C-2.76549102 15.54828548 -4.23344509 20.96261939 -5.33203125 26.625 C-9.18607606 45.35106147 -9.18607606 45.35106147 -14.69140625 49.1953125 C-18.03567741 50.98667379 -21.52935827 52.18917449 -25.14257812 53.31982422 C-28.68645898 54.61757028 -31.30822446 57.06491188 -34.16015625 59.45703125 C-36.64083895 61.53743394 -39.27700467 63.25449017 -42 65 C-41.44153452 60.89482831 -40.53185173 57.49146984 -38.8125 53.7265625 C-38.36527588 52.74413574 -37.91805176 51.76170898 -37.45727539 50.74951172 C-36.97637451 49.71842285 -36.49547363 48.68733398 -36 47.625 C-35.26221313 46.03002686 -35.26221313 46.03002686 -34.50952148 44.40283203 C-29.42153971 33.54070092 -23.91596314 22.82873379 -17 13 C-16.67 13 -16.34 13 -16 13 C-15.67 17.95 -15.34 22.9 -15 28 C-13.06119141 24.45904416 -11.12390972 20.91726738 -9.1875 17.375 C-8.64029297 16.37597656 -8.09308594 15.37695312 -7.52929688 14.34765625 C-4.93686285 9.6027164 -2.36500869 4.86278981 0 0 Z " fill="#070707" transform="translate(173,193)"/>
<path d="M0 0 C4.95079 1.28353815 7.51869026 2.59053539 10.375 6.875 C11.02019961 12.57426325 9.87586663 15.38951463 6.375 19.875 C10.02166307 17.60713722 11.05397228 15.81095674 12.125 11.6875 C12.36734375 10.78644531 12.6096875 9.88539062 12.859375 8.95703125 C13.02953125 8.26996094 13.1996875 7.58289063 13.375 6.875 C14.365 7.535 15.355 8.195 16.375 8.875 C16.8125 12.25 16.8125 12.25 16.375 15.875 C13.64315741 19.21532724 10.79812655 20.8542155 6.875 22.5625 C5.9365625 22.97886719 4.998125 23.39523438 4.03125 23.82421875 C-0.64071915 25.67239478 -4.56298251 26.31903662 -9.625 25.875 C-12.5 24.25 -12.5 24.25 -14.625 21.875 C-15.4375 18.625 -15.4375 18.625 -15.625 15.875 C-13.625 15.875 -13.625 15.875 -11.5 17.875 C-10.88125 18.535 -10.2625 19.195 -9.625 19.875 C-9.934375 18.781875 -10.24375 17.68875 -10.5625 16.5625 C-11.25811228 11.10537266 -8.69507987 7.41403917 -5.6640625 3.0546875 C-3.625 0.875 -3.625 0.875 0 0 Z " fill="#F8F8F8" transform="translate(299.625,80.125)"/>
<path d="M0 0 C2.0555528 3.0833292 2.78160434 5.35023982 3.734375 8.90625 C4.05849365 10.1123291 4.3826123 11.3184082 4.71655273 12.56103516 C5.06173592 13.87383938 5.40620151 15.18683247 5.75 16.5 C5.92508087 17.16328308 6.10016174 17.82656616 6.2805481 18.50994873 C8.82795261 28.17723794 11.2274759 37.87440678 13.4375 47.625 C13.6840332 48.69427734 13.93056641 49.76355469 14.18457031 50.86523438 C15.73602678 57.8964439 16.57779005 64.81361808 17 72 C14.99938726 69.47515879 13.49007821 67.16257118 12.31640625 64.1640625 C12.03055664 63.43719238 11.74470703 62.71032227 11.45019531 61.96142578 C11.15725586 61.19040527 10.86431641 60.41938477 10.5625 59.625 C10.10182129 58.41626221 10.10182129 58.41626221 9.63183594 57.18310547 C2.63572345 38.54034953 -0.75045653 19.90099544 0 0 Z " fill="#111111" transform="translate(63,345)"/>
<path d="M0 0 C4.53356223 0.49011484 4.53356223 0.49011484 6.55688477 2.7019043 C8.1716018 5.27326809 8.93720045 7.60454407 9.77734375 10.51953125 C11.88680569 17.12877743 15.00783616 22.75772894 18.5625 28.6875 C30.40097806 48.54175203 30.40097806 48.54175203 28 59 C25.66405661 63.59045956 22.95665689 67.7894038 20 72 C20.66 72.33 21.32 72.66 22 73 C20.35 72.67 18.7 72.34 17 72 C18.31359812 69.2511743 19.7925498 66.76953018 21.5 64.25 C24.04993108 60.24833825 25.08887617 56.63844857 26 52 C19.37782792 52.89552505 14.25570253 53.73861957 9 58 C10.55500981 54.18315774 13.03595495 51.80804268 16 49 C15.01 48.67 14.02 48.34 13 48 C16.8892032 45.2546801 19.29636286 44.84364641 24 45 C18.11471688 33.49513502 11.92028846 22.25648119 5.2043457 11.21240234 C4.67156006 10.32891113 4.13877441 9.44541992 3.58984375 8.53515625 C3.11409912 7.755354 2.63835449 6.97555176 2.14819336 6.17211914 C1.05164583 4.0977021 0.45158611 2.29249236 0 0 Z " fill="#101010" transform="translate(258,24)"/>
<path d="M0 0 C0.495 0.99 0.495 0.99 1 2 C-6.12159158 11.18781738 -13.3759099 20.22352531 -21 29 C-21.45906738 29.53431641 -21.91813477 30.06863281 -22.39111328 30.61914062 C-28.30141163 37.46722012 -34.21595845 43.26590613 -42 48 C-42.68030273 48.41588379 -43.36060547 48.83176758 -44.06152344 49.26025391 C-47.83516972 51.55700942 -51.62410636 53.82841237 -55.4375 56.05859375 C-56.07558594 56.43298584 -56.71367188 56.80737793 -57.37109375 57.19311523 C-59 58 -59 58 -61 58 C-60.58726322 52.73760609 -59.88050973 49.67627237 -56 46 C-51.63645533 43.5065459 -48.73980217 42.95885436 -43.75 42.9375 C-36.08691457 42.40213376 -31.95378085 37.4350899 -27 32 C-24.73007517 29.38235863 -22.54295744 26.7252014 -20.3984375 24.00390625 C-17.1057518 19.88000511 -13.63960436 15.91330469 -10.16040039 11.94628906 C-7.84073829 9.27199191 -5.68994757 6.62228532 -3.76953125 3.64453125 C-2 1 -2 1 0 0 Z " fill="#101010" transform="translate(170,346)"/>
<path d="M0 0 C0.66 0.33 1.32 0.66 2 1 C-8.017516 7.66079251 -17.63467926 12.99759469 -29 17 C-30.57587891 17.58394531 -30.57587891 17.58394531 -32.18359375 18.1796875 C-41.60446135 21.53640755 -50.98556249 23.38517067 -61 23 C-57.9885178 20.9923452 -56.10543093 20.42143483 -52.62890625 19.6328125 C-45.95063377 18.02922431 -39.45494324 16.03535839 -32.9375 13.875 C-31.770979 13.48973145 -30.60445801 13.10446289 -29.40258789 12.70751953 C-21.15480818 9.90903435 -13.30891108 6.62993755 -5.56030273 2.65576172 C-3.7307085 1.72223191 -1.86819448 0.85366407 0 0 Z " fill="#1F1F1F" transform="translate(228,391)"/>
<path d="M0 0 C0.33 0 0.66 0 1 0 C1.0501123 0.589021 1.10022461 1.17804199 1.15185547 1.78491211 C1.38668458 4.50301913 1.63079109 7.22022028 1.875 9.9375 C1.95363281 10.86369141 2.03226562 11.78988281 2.11328125 12.74414062 C3.17430748 24.37462048 5.86663948 35.16071797 11.3125 45.5625 C11.869375 46.696875 12.42625 47.83125 13 49 C12.67 49.66 12.34 50.32 12 51 C6.36742117 43.80912847 2.86637099 36.65509677 0 28 C-0.2475 27.30261719 -0.495 26.60523438 -0.75 25.88671875 C-3.29332249 17.63858263 -3.06544446 8.00421609 0 0 Z " fill="#1D1D1D" transform="translate(317,302)"/>
<path d="M0 0 C3.03841634 0.21702974 3.98179086 0.98013548 6.0625 3.25 C7.92128127 6.27229321 8.51921601 9.15883368 9.1875 12.625 C10.67080187 19.86651306 13.59009474 26.19786661 16.77612305 32.84423828 C19.15769753 37.86485475 20.84176959 42.55944741 22 48 C20.515 47.505 20.515 47.505 19 47 C17.70200436 44.15604257 16.5772103 41.36519579 15.5 38.4375 C11.90685019 29.01848784 7.82271443 19.8933352 3.50585938 10.78491211 C2.82233398 9.32710327 2.82233398 9.32710327 2.125 7.83984375 C1.71507812 6.97738037 1.30515625 6.11491699 0.8828125 5.22631836 C0 3 0 3 0 0 Z " fill="#141414" transform="translate(239,32)"/>
<path d="M0 0 C0.66 0.33 1.32 0.66 2 1 C1.25556641 2.12921875 1.25556641 2.12921875 0.49609375 3.28125 C-7.02215299 15.03653523 -12.95378596 27.30654261 -16 41 C-16.33 41 -16.66 41 -17 41 C-17.70309626 27.62164066 -15.42899765 17.5709547 -7 7 C-4.75860488 4.56017151 -2.43773735 2.24300685 0 0 Z " fill="#111111" transform="translate(137,155)"/>
<path d="M0 0 C0.495 0.99 0.495 0.99 1 2 C-7.95305565 13.55065401 -17.15807837 24.82403871 -26.9375 35.6875 C-28.25041016 37.14736328 -28.25041016 37.14736328 -29.58984375 38.63671875 C-31.71242852 40.71802148 -33.26919152 41.91654698 -36 43 C-36 40 -36 40 -34.34765625 38.34375 C-33.59355469 37.7353125 -32.83945313 37.126875 -32.0625 36.5 C-27.63799578 32.70953689 -24.07982158 28.63256087 -20.46875 24.07421875 C-17.1441767 19.93428333 -13.66146881 15.93832322 -10.16088867 11.94677734 C-7.84101053 9.27234959 -5.69007658 6.62248538 -3.76953125 3.64453125 C-2 1 -2 1 0 0 Z " fill="#202020" transform="translate(170,346)"/>
<path d="M0 0 C1.04815393 3.14446179 0.96974193 4.60095146 0.59765625 7.83203125 C-0.08113708 14.444546 -0.33503337 21.04622026 -0.5625 27.6875 C-0.60568359 28.87794922 -0.64886719 30.06839844 -0.69335938 31.29492188 C-0.79823679 34.19653034 -0.90040196 37.09820635 -1 40 C-4.5712932 34.64306019 -4.18291747 29.56765929 -4.1875 23.3125 C-4.19974609 22.45205078 -4.21199219 21.59160156 -4.22460938 20.70507812 C-4.24123348 13.35168403 -3.49999448 6.55824209 0 0 Z " fill="#171717" transform="translate(329,288)"/>
<path d="M0 0 C2.49693585 0.34440494 3.7421609 0.73953658 5.53515625 2.55078125 C7.50643625 5.8467614 8.02579989 9.20271296 8.625 12.9375 C8.86710173 14.3424627 9.1092873 15.74741095 9.3515625 17.15234375 C9.56554687 18.42207031 9.77953125 19.69179688 10 21 C10.32540308 22.66823311 10.65477518 24.33575581 11 26 C10.34 26 9.68 26 9 26 C7.49172203 22.23242503 5.99481006 18.46043651 4.5 14.6875 C4.07074219 13.61564453 3.64148438 12.54378906 3.19921875 11.43945312 C2.59013672 9.89741211 2.59013672 9.89741211 1.96875 8.32421875 C1.40317383 6.9024231 1.40317383 6.9024231 0.82617188 5.4519043 C0 3 0 3 0 0 Z " fill="#0B0B0B" transform="translate(218,44)"/>
<path d="M0 0 C2.67697088 4.01545632 4.51569995 8.29731539 6.5 12.6875 C6.90347656 13.56083984 7.30695313 14.43417969 7.72265625 15.33398438 C10.06610405 20.51199857 11.8091246 25.4404241 13 31 C10 30 10 30 8.95678711 28.11401367 C8.6500708 27.30681885 8.34335449 26.49962402 8.02734375 25.66796875 C7.51397461 24.34635742 7.51397461 24.34635742 6.99023438 22.99804688 C6.64283203 22.07056641 6.29542969 21.14308594 5.9375 20.1875 C5.23964862 18.36796456 4.54047642 16.54893503 3.83984375 14.73046875 C3.53425537 13.91989014 3.22866699 13.10931152 2.91381836 12.27416992 C2.0439258 9.99494468 2.0439258 9.99494468 0.89282227 7.9074707 C-0.35374304 5.24424547 -0.13170734 2.89756155 0 0 Z " fill="#1E1E1E" transform="translate(248,49)"/>
<path d="M0 0 C0.969375 0.86625 1.93875 1.7325 2.9375 2.625 C9.75601428 8.42828277 16.30229738 12.6559383 25 15 C25 15.33 25 15.66 25 16 C17.87092762 16.66009929 12.95533563 14.97685184 7 11 C3.38708841 7.73013254 0.94353085 4.84487187 0 0 Z " fill="#262626" transform="translate(146,103)"/>
<path d="M0 0 C0.99 0.33 1.98 0.66 3 1 C2.55527344 1.556875 2.11054688 2.11375 1.65234375 2.6875 C-2.40380055 8.00896618 -2.40380055 8.00896618 -2.9375 14.4375 C-2.17972948 17.81126033 -2.17972948 17.81126033 -1 20 C-3.62187494 18.95125002 -4.79371361 18.35068687 -6.25 15.875 C-6.4975 15.25625 -6.745 14.6375 -7 14 C-7.66 14 -8.32 14 -9 14 C-9.33 14.66 -9.66 15.32 -10 16 C-10 14.68 -10 13.36 -10 12 C-8.55597047 10.78570244 -7.10493823 9.57750055 -5.6015625 8.4375 C-2.93669474 6.04561869 -1.61555267 3.1689687 0 0 Z " fill="#161616" transform="translate(293,82)"/>
<path d="M0 0 C0.33 0.66 0.66 1.32 1 2 C-0.7280375 4.20922483 -2.45739512 6.41739506 -4.1875 8.625 C-4.67025391 9.24246094 -5.15300781 9.85992187 -5.65039062 10.49609375 C-8.70241642 14.38793873 -11.81542961 18.21577559 -15 22 C-15.99 21.67 -16.98 21.34 -18 21 C-17.18015625 20.05898438 -16.3603125 19.11796875 -15.515625 18.1484375 C-14.42690558 16.89077886 -13.33837387 15.6329577 -12.25 14.375 C-11.71117187 13.75753906 -11.17234375 13.14007813 -10.6171875 12.50390625 C-8.13787329 9.63153003 -5.79151977 6.79414431 -3.734375 3.6015625 C-2 1 -2 1 0 0 Z " fill="#1C1C1C" transform="translate(170,346)"/>
<path d="M0 0 C0.66 0 1.32 0 2 0 C4.03378113 3.61788201 6.0497833 7.24536341 8.0625 10.875 C8.64322266 11.90753906 9.22394531 12.94007812 9.82226562 14.00390625 C10.36689453 14.99003906 10.91152344 15.97617187 11.47265625 16.9921875 C11.98062744 17.90339355 12.48859863 18.81459961 13.01196289 19.75341797 C13.33801514 20.49479004 13.66406738 21.23616211 14 22 C13.67 22.66 13.34 23.32 13 24 C9.28969189 20.57323513 7.22759996 16.38232118 4.8125 12 C4.34908203 11.18015625 3.88566406 10.3603125 3.40820312 9.515625 C2.75174805 8.33226562 2.75174805 8.33226562 2.08203125 7.125 C1.48225464 6.04605469 1.48225464 6.04605469 0.87036133 4.9453125 C0 3 0 3 0 0 Z " fill="#171717" transform="translate(270,44)"/>
<path d="M0 0 C0.99 0.66 1.98 1.32 3 2 C3.49229273 5.79768679 3.65924055 8.0506936 1.4375 11.25 C-1.59273212 13.42555127 -4.51930813 14.66127236 -8 16 C-8.33 15.34 -8.66 14.68 -9 14 C-8.236875 13.649375 -7.47375 13.29875 -6.6875 12.9375 C-2.37127836 9.82580533 -1.01959739 5.09798693 0 0 Z " fill="#E7E7E7" transform="translate(313,87)"/>
<path d="M0 0 C0.66 0.66 1.32 1.32 2 2 C-1.87465111 2.33747251 -5.74977038 2.66924222 -9.625 3 C-10.71941406 3.09539062 -11.81382812 3.19078125 -12.94140625 3.2890625 C-14.00488281 3.37929688 -15.06835938 3.46953125 -16.1640625 3.5625 C-17.13811035 3.64628906 -18.1121582 3.73007812 -19.11572266 3.81640625 C-22.08515232 4.00542023 -25.02539483 4.0308649 -28 4 C-28 3.67 -28 3.34 -28 3 C-24.08559007 2.29921164 -20.168211 1.61668646 -16.25 0.9375 C-14.58324219 0.63875977 -14.58324219 0.63875977 -12.8828125 0.33398438 C-11.81289062 0.15029297 -10.74296875 -0.03339844 -9.640625 -0.22265625 C-8.16384277 -0.48187866 -8.16384277 -0.48187866 -6.65722656 -0.74633789 C-4.05616544 -0.99463838 -2.42701973 -0.92233436 0 0 Z " fill="#434343" transform="translate(186,460)"/>
<path d="M0 0 C1.22589844 0.47566406 1.22589844 0.47566406 2.4765625 0.9609375 C6.51234559 2.15109083 10.19509032 2.44359343 14.375 2.625 C15.11105469 2.66367188 15.84710938 2.70234375 16.60546875 2.7421875 C18.40327406 2.83557998 20.20160108 2.9188371 22 3 C21.360625 3.103125 20.72125 3.20625 20.0625 3.3125 C19.381875 3.539375 18.70125 3.76625 18 4 C17.67 4.99 17.34 5.98 17 7 C10.49200879 6.00481422 5.5332147 4.60861828 0 1 C0 0.67 0 0.34 0 0 Z " fill="#2F2F2F" transform="translate(170,123)"/>
<path d="M0 0 C0.680625 0.12375 1.36125 0.2475 2.0625 0.375 C-3.64090278 6.29776442 -8.15230725 9.82467824 -15.9375 12.375 C-15.9375 11.715 -15.9375 11.055 -15.9375 10.375 C-16.5975 10.045 -17.2575 9.715 -17.9375 9.375 C-16.761875 9.00375 -15.58625 8.6325 -14.375 8.25 C-11.04869416 7.03348885 -8.83680475 5.5976727 -6.25 3.1875 C-3.26758633 0.41713868 -3.26758633 0.41713868 0 0 Z " fill="#202020" transform="translate(274.9375,97.625)"/>
<path d="M0 0 C0.33 0.66 0.66 1.32 1 2 C-2.99342203 8.90627103 -7.44569685 13.47024827 -14 18 C-14.66 17.67 -15.32 17.34 -16 17 C-15.27296875 16.41605469 -15.27296875 16.41605469 -14.53125 15.8203125 C-8.88726361 11.10975463 -4.42764054 5.85249295 0 0 Z " fill="#2E2E2E" transform="translate(275,86)"/>
<path d="M0 0 C0.99 0 1.98 0 3 0 C1.51194289 5.80342274 -1.59097555 10.17590879 -5 15 C-4.34 15.33 -3.68 15.66 -3 16 C-4.65 15.67 -6.3 15.34 -8 15 C-6.29231921 11.44961249 -4.25801816 8.20601621 -2.12109375 4.90234375 C-0.84878807 2.89506996 -0.84878807 2.89506996 0 0 Z " fill="#232323" transform="translate(283,81)"/>
<path d="M0 0 C0.33 0.66 0.66 1.32 1 2 C-2.49253699 6.52048227 -5.4486521 10.02618741 -11 12 C-11.99 11.67 -12.98 11.34 -14 11 C-12.98679688 10.31164062 -12.98679688 10.31164062 -11.953125 9.609375 C-11.06109375 8.99578125 -10.1690625 8.3821875 -9.25 7.75 C-8.36828125 7.14671875 -7.4865625 6.5434375 -6.578125 5.921875 C-4.14566506 4.10858668 -2.08271931 2.19950731 0 0 Z " fill="#2F2F2F" transform="translate(249,98)"/>
<path d="M0 0 C1.2109375 1.640625 1.2109375 1.640625 2 4 C0.6640625 6.796875 0.6640625 6.796875 -1.375 9.75 C-2.04273438 10.73484375 -2.71046875 11.7196875 -3.3984375 12.734375 C-3.92695313 13.48203125 -4.45546875 14.2296875 -5 15 C-5.66 14.67 -6.32 14.34 -7 14 C-5.23570801 9.02790438 -2.6060834 4.56561939 0 0 Z " fill="#1D1D1D" transform="translate(232,91)"/>
<path d="M0 0 C0.99 0.33 1.98 0.66 3 1 C1.90751403 2.50852857 0.80061501 4.00662831 -0.3125 5.5 C-0.92738281 6.3353125 -1.54226562 7.170625 -2.17578125 8.03125 C-2.77777344 8.6809375 -3.37976563 9.330625 -4 10 C-4.99 10 -5.98 10 -7 10 C-6.02223933 8.51990357 -5.0427506 7.04094856 -4.0625 5.5625 C-3.51722656 4.73878906 -2.97195312 3.91507812 -2.41015625 3.06640625 C-1 1 -1 1 0 0 Z " fill="#1C1C1C" transform="translate(255,97)"/>
<path d="M0 0 C0.99 0.33 1.98 0.66 3 1 C0.33333333 5 -2.33333333 9 -5 13 C-5.68359375 11.296875 -5.68359375 11.296875 -6 9 C-4.78515625 6.640625 -4.78515625 6.640625 -3.0625 4.25 C-2.49660156 3.45078125 -1.93070312 2.6515625 -1.34765625 1.828125 C-0.90292969 1.22484375 -0.45820313 0.6215625 0 0 Z " fill="#222222" transform="translate(293,82)"/>
<path d="M0 0 C0.66 0.33 1.32 0.66 2 1 C0.23754778 2.1999038 -1.53526981 3.38459517 -3.3125 4.5625 C-4.79169922 5.55443359 -4.79169922 5.55443359 -6.30078125 6.56640625 C-7.19152344 7.03949219 -8.08226562 7.51257813 -9 8 C-9.99 7.67 -10.98 7.34 -12 7 C-10.75146327 6.20602761 -9.50109957 5.41492783 -8.25 4.625 C-7.20585937 3.96371094 -7.20585937 3.96371094 -6.140625 3.2890625 C-4.1171126 2.07052401 -2.18211785 0.90768768 0 0 Z " fill="#333333" transform="translate(228,391)"/>
<path d="M0 0 C0.33 0.99 0.66 1.98 1 3 C-0.14453125 5.26171875 -0.14453125 5.26171875 -1.8125 7.6875 C-2.35519531 8.49574219 -2.89789063 9.30398437 -3.45703125 10.13671875 C-3.96621094 10.75160156 -4.47539062 11.36648437 -5 12 C-5.66 12 -6.32 12 -7 12 C-5.44298069 7.32894208 -2.91552627 3.91294315 0 0 Z " fill="#2F2F2F" transform="translate(226,94)"/>
<path d="M0 0 C1.90389849 2.85584773 2.69462177 4.9311762 3.625 8.1875 C3.88539063 9.08855469 4.14578125 9.98960938 4.4140625 10.91796875 C4.60742188 11.60503906 4.80078125 12.29210937 5 13 C4.01 12.67 3.02 12.34 2 12 C1.015625 9.78515625 1.015625 9.78515625 0.25 7.0625 C-0.01296875 6.16660156 -0.2759375 5.27070312 -0.546875 4.34765625 C-1 2 -1 2 0 0 Z " fill="#212121" transform="translate(256,67)"/>
<path d="M0 0 C0.33 0.66 0.66 1.32 1 2 C-0.98 4.64 -2.96 7.28 -5 10 C-5.99 9.67 -6.98 9.34 -8 9 C-7.04663979 7.68388323 -6.08714226 6.37221039 -5.125 5.0625 C-4.59132812 4.33160156 -4.05765625 3.60070312 -3.5078125 2.84765625 C-2 1 -2 1 0 0 Z " fill="#161616" transform="translate(170,346)"/>
<path d="M0 0 C0.66 0 1.32 0 2 0 C1.40380045 4.86896303 0.43023178 9.32790951 -1 14 C-1.33 14 -1.66 14 -2 14 C-1.85923685 12.0412957 -1.7122324 10.08303907 -1.5625 8.125 C-1.48128906 7.03445313 -1.40007812 5.94390625 -1.31640625 4.8203125 C-1 2 -1 2 0 0 Z " fill="#282828" transform="translate(110,263)"/>
<path d="M0 0 C1.18414294 3.55242882 0.69535532 4.69830562 -0.4375 8.1875 C-0.72496094 9.08855469 -1.01242188 9.98960937 -1.30859375 10.91796875 C-1.53675781 11.60503906 -1.76492187 12.29210937 -2 13 C-2.99 13 -3.98 13 -5 13 C-5 9.51038791 -4.09620626 7.88519705 -2.5 4.8125 C-2.0359375 3.91144531 -1.571875 3.01039063 -1.09375 2.08203125 C-0.7328125 1.39496094 -0.371875 0.70789063 0 0 Z " fill="#242424" transform="translate(173,193)"/>
<path d="M0 0 C1.64350079 3.28700157 2.41321669 5.47930015 3 9 C2.34 9 1.68 9 1 9 C1 11.64 1 14.28 1 17 C0.67 17 0.34 17 0 17 C0 11.39 0 5.78 0 0 Z " fill="#3A3A3A" transform="translate(370,330)"/>
<path d="M0 0 C2 0.6875 2 0.6875 4 2.6875 C0.37 3.0175 -3.26 3.3475 -7 3.6875 C-2.86486486 -0.44763514 -2.86486486 -0.44763514 0 0 Z " fill="#242424" transform="translate(223,81.3125)"/>
<path d="M0 0 C3.63 0.66 7.26 1.32 11 2 C6.64467851 4.17766075 5.53374042 4.03039555 1 3 C0.67 2.01 0.34 1.02 0 0 Z " fill="#232323" transform="translate(224,111)"/>
<path d="M0 0 C-0.66 2.31 -1.32 4.62 -2 7 C-3.32 6.67 -4.64 6.34 -6 6 C-6 4 -6 4 -4.125 1.875 C-2 0 -2 0 0 0 Z " fill="#131313" transform="translate(226,105)"/>
<path d="M0 0 C0.66 0.66 1.32 1.32 2 2 C-1.3 2 -4.6 2 -8 2 C-6.17297827 -1.65404345 -3.39088524 -1.20321734 0 0 Z " fill="#3F3F3F" transform="translate(249,86)"/>
<path d="M0 0 C0.86625 0.3403125 0.86625 0.3403125 1.75 0.6875 C0.821875 1.285625 -0.10625 1.88375 -1.0625 2.5 C-3.45254718 4.14022845 -5.33470253 5.5593917 -7.25 7.6875 C-6.91753345 4.61218444 -6.61895244 3.06917494 -4.4375 0.8125 C-2.25 -0.3125 -2.25 -0.3125 0 0 Z " fill="#414141" transform="translate(273.25,67.3125)"/>
<path d="M0 0 C2.64465038 3.1254959 3.84414715 6.08788267 5 10 C2 9 2 9 0.8125 7.25 C-0.10819096 4.70039426 -0.14948718 2.69076919 0 0 Z " fill="#232323" transform="translate(279,58)"/>
<path d="M0 0 C2.52259061 1.97420135 2.9929808 2.96745642 3.6875 6.1875 C3.790625 7.115625 3.89375 8.04375 4 9 C3.34 9 2.68 9 2 9 C0.50178941 5.62902617 0 3.79557881 0 0 Z " fill="#161616" transform="translate(252,60)"/>
<path d="M0 0 C2.64465038 3.1254959 3.84414715 6.08788267 5 10 C0.07692308 5.69230769 0.07692308 5.69230769 -0.3125 2.1875 C-0.209375 1.465625 -0.10625 0.74375 0 0 Z " fill="#383838" transform="translate(325,343)"/>
</svg>
